<svg width="71" height="70" viewBox="0 0 71 70" fill="none" xmlns="http://www.w3.org/2000/svg">
<g opacity="0.9">
<path d="M47.198 18.0469C47.198 17.7461 46.9519 17.5 46.6511 17.5H20.4011C20.1003 17.5 19.8542 17.7461 19.8542 18.0469V21.3281C19.8542 21.6289 20.1003 21.875 20.4011 21.875H46.6511C46.9519 21.875 47.198 21.6289 47.198 21.3281V18.0469ZM46.6511 27.3437H20.4011C20.1003 27.3437 19.8542 27.5898 19.8542 27.8906V31.1719C19.8542 31.4727 20.1003 31.7187 20.4011 31.7187H46.6511C46.9519 31.7187 47.198 31.4727 47.198 31.1719V27.8906C47.198 27.5898 46.9519 27.3437 46.6511 27.3437ZM32.9792 37.1875H20.4011C20.1003 37.1875 19.8542 37.4336 19.8542 37.7344V41.0156C19.8542 41.3164 20.1003 41.5625 20.4011 41.5625H32.9792C33.28 41.5625 33.5261 41.3164 33.5261 41.0156V37.7344C33.5261 37.4336 33.28 37.1875 32.9792 37.1875ZM29.698 58.2422H14.3855V10.1172H52.6668V33.6328C52.6668 33.9336 52.9128 34.1797 53.2136 34.1797H57.0418C57.3425 34.1797 57.5886 33.9336 57.5886 33.6328V7.38281C57.5886 6.17285 56.6111 5.19531 55.4011 5.19531H11.6511C10.4412 5.19531 9.46362 6.17285 9.46362 7.38281V60.9766C9.46362 62.1865 10.4412 63.1641 11.6511 63.1641H29.698C29.9988 63.1641 30.2449 62.918 30.2449 62.6172V58.7891C30.2449 58.4883 29.9988 58.2422 29.698 58.2422ZM54.0886 53.1562C56.071 51.3584 57.3152 48.7607 57.3152 45.8691C57.3152 40.4346 52.906 36.0254 47.4714 36.0254C42.0369 36.0254 37.6277 40.4346 37.6277 45.8691C37.6277 48.7607 38.8718 51.3584 40.8543 53.1562C36.9578 55.3779 34.2781 59.4932 34.073 64.2373C34.0593 64.5449 34.3123 64.8047 34.6199 64.8047H37.908C38.1951 64.8047 38.4343 64.5791 38.4548 64.2852C38.7214 59.5547 42.6658 55.7812 47.4714 55.7812C52.2771 55.7812 56.2214 59.5547 56.488 64.2852C56.5017 64.5723 56.741 64.8047 57.0349 64.8047H60.323C60.6375 64.8047 60.8835 64.5449 60.8699 64.2373C60.6716 59.4863 57.9851 55.3779 54.0886 53.1562ZM47.4714 40.4004C50.4929 40.4004 52.9402 42.8477 52.9402 45.8691C52.9402 48.8906 50.4929 51.3379 47.4714 51.3379C44.45 51.3379 42.0027 48.8906 42.0027 45.8691C42.0027 42.8477 44.45 40.4004 47.4714 40.4004Z" fill="#4F00FF"/>
</g>
</svg>
