<svg width="40" height="41" viewBox="0 0 40 41" fill="none" xmlns="http://www.w3.org/2000/svg">
<g opacity="0.7">
<circle cx="20" cy="20.9219" r="20" fill="white"/>
<path d="M27.891 16.7098C28.614 18.0323 28.992 19.5156 28.99 21.0228C28.9904 22.5961 28.5777 24.1418 27.7933 25.5056C27.0089 26.8693 25.8801 28.0032 24.52 28.7938L27.266 20.8548C27.779 19.5728 27.95 18.5458 27.95 17.6358C27.9504 17.3262 27.9307 17.0169 27.891 16.7098ZM21.24 16.7968C21.583 16.78 21.9252 16.7506 22.266 16.7088C22.751 16.6458 22.694 15.9338 22.21 15.9598C22.21 15.9598 20.747 16.0718 19.81 16.0718C18.923 16.0718 17.435 15.9468 17.435 15.9468C16.948 15.9228 16.885 16.6598 17.374 16.6848C17.374 16.6848 17.823 16.7368 18.312 16.7598L19.711 20.5978L17.736 26.4968L14.462 16.7728C14.8054 16.7556 15.1483 16.7279 15.49 16.6898C15.977 16.6268 15.92 15.9148 15.435 15.9428C15.435 15.9428 13.98 16.0578 13.04 16.0578C12.873 16.0578 12.675 16.0508 12.465 16.0448C14.093 13.6478 16.862 12.0348 20 12.0348C22.341 12.0348 24.471 12.9288 26.071 14.3948C26.033 14.3928 25.995 14.3868 25.954 14.3868C25.071 14.3868 24.444 15.1568 24.444 15.9828C24.444 16.7238 24.871 17.3518 25.327 18.0908C25.67 18.6918 26.069 19.4608 26.069 20.5718C26.069 21.3348 25.774 22.2338 25.384 23.4708L24.488 26.4578L21.238 16.7828L21.24 16.7968ZM20 30.0088C19.1403 30.0097 18.2849 29.8871 17.46 29.6448L20.157 21.8068L22.92 29.3788C22.941 29.4228 22.962 29.4638 22.985 29.5028C22.0258 29.8392 21.0165 30.011 20 30.0108V30.0088ZM11.01 21.0228C11.0085 19.7623 11.2737 18.5157 11.788 17.3648L16.075 29.1138C14.5565 28.3765 13.2761 27.2267 12.3804 25.7958C11.4847 24.365 11.0098 22.7109 11.01 21.0228ZM20 11.0228C14.487 11.0228 10 15.5098 10 21.0228C10 26.5358 14.487 31.0228 20 31.0228C25.513 31.0228 30 26.5358 30 21.0228C30 15.5098 25.513 11.0228 20 11.0228Z" fill="black"/>
</g>
</svg>
